# xmcd
#
# Track frame offsets:
# 150
# 12522
# 25074
# 36027
# 46316
# 54973
# 71408
# 82073
# 93087
# 107630
# 126087
#
# Disc length: 1858 seconds
#
#
# Revision: 0
# Processed by: cddbd v1.4PL0 Copyright (c) Steve Scherf et al.
# Submitted via: FreeRIP 2.00 
#
DISCID=8207400b
DTITLE=Waylon Jennings - Don't Think Twice
DYEAR=1970
DGENRE=Country
TTITLE0=Don't Think Twice (It's Alright)
TTITLE1=River Boy
TTITLE2=The Twelfth Of Never
TTITLE3=The Race Is On
TTITLE4=Stepping Stone
TTITLE5=The Real House Of The Rising Sun
TTITLE6=Just To Satisfy You
TTITLE7=Kisses Sweeter Than Wine
TTITLE8=Unchained Melody
TTITLE9=I Don't Believe You
TTITLE10=Four Strong Winds
EXTD=A&M SP 4238
EXTT0=
EXTT1=
EXTT2=
EXTT3=
EXTT4=
EXTT5=
EXTT6=
EXTT7=
EXTT8=
EXTT9=
EXTT10=
PLAYORDER=
